<svg width="500" height="500" viewBox="0 0 500 500" fill="none" xmlns="http://www.w3.org/2000/svg">
<path d="M181.77 433.01C208.3 449 227.226 442.362 234.472 429.539C248.484 404.742 295.074 354.033 368.906 336.894C466.692 314.194 446.27 253.922 386.157 222.294C326.044 190.666 281.097 146.903 287.9 99.3178C294.702 51.733 227.3 35.329 197.325 126.866C177.954 186.021 143.241 201.869 121.105 205.678C100.242 209.268 77.4209 213.773 66.2921 231.781C52.7881 253.631 57.5004 275.734 114.039 290.893C194.159 312.375 122.305 397.166 181.77 433.01Z" fill="#DEE9FF"/>
<path d="M112.839 329.329C113.962 328.686 126.634 323.322 189.675 352.711C189.491 352.961 189.413 353.079 189.413 353.079C189.413 353.079 123.876 375.15 111.035 347.96C107.2 339.866 108.299 334.292 112.729 329.392L112.839 329.329Z" fill="#0E84E5"/>
<path d="M324.724 340.451C311.028 351.965 289.549 360.322 268.824 349.209C272.099 347.116 275.482 344.961 278.932 342.731C299.745 329.358 318.078 338.306 324.724 340.451Z" fill="#0E84E5"/>
<path d="M349.258 198.838C363.252 315.359 329.997 336.506 326.295 339.718C325.223 340.648 324.789 340.581 323.168 340.163L323.141 340.179C316.282 338.361 299.747 329.358 278.933 342.729C275.483 344.959 272.099 347.114 268.825 349.207C247.593 362.673 230.447 372.163 218.094 366.655C207.616 361.31 198.169 356.684 189.676 352.711C126.635 323.321 113.963 328.686 112.84 329.329C114.143 328.619 126.093 321.995 142.185 310.346C142.24 310.314 142.294 310.283 142.306 310.24C163.815 294.652 192.619 270.088 213.323 238.49C227.418 217.003 241.207 162.531 267.812 151.843C322.489 131.445 346.988 175.137 349.258 198.838Z" fill="#699CFF"/>
<path d="M288.798 196.793C290.496 192.312 290.33 188.095 288.429 187.375C286.527 186.655 283.61 189.704 281.913 194.186C280.216 198.668 280.381 202.884 282.282 203.605C284.184 204.325 287.101 201.275 288.798 196.793Z" fill="white"/>
<path d="M323.613 202.512C324.816 197.873 324.196 193.699 322.228 193.188C320.26 192.678 317.689 196.025 316.487 200.664C315.284 205.303 315.904 209.477 317.872 209.987C319.84 210.498 322.411 207.151 323.613 202.512Z" fill="white"/>
<path d="M302.422 219.545C302.137 219.544 301.861 219.446 301.639 219.267C301.417 219.088 301.263 218.839 301.202 218.56C300.979 217.551 299.988 214.566 298.416 214.122C296.844 213.678 293.76 215.401 292.513 216.305C292.244 216.499 291.909 216.579 291.582 216.526C291.255 216.474 290.961 216.294 290.767 216.025C290.572 215.757 290.493 215.422 290.545 215.095C290.597 214.767 290.778 214.474 291.046 214.28C291.538 213.924 295.941 210.826 299.095 211.716C302.383 212.644 303.526 217.48 303.645 218.028C303.684 218.211 303.683 218.4 303.64 218.582C303.597 218.764 303.514 218.934 303.396 219.079C303.279 219.225 303.131 219.342 302.962 219.423C302.793 219.503 302.609 219.545 302.422 219.545H302.422Z" fill="white"/>
</svg>
