<svg width="251" height="74" viewBox="0 0 251 74" fill="none" xmlns="http://www.w3.org/2000/svg">
<path d="M93.5039 58.6426V43.5254C93.5039 42.3926 93.2988 41.416 92.8887 40.5957C92.4785 39.7754 91.8535 39.1406 91.0137 38.6914C90.1934 38.2422 89.1582 38.0176 87.9082 38.0176C86.7559 38.0176 85.7598 38.2129 84.9199 38.6035C84.0801 38.9941 83.4258 39.5215 82.957 40.1855C82.4883 40.8496 82.2539 41.6016 82.2539 42.4414H75.2227C75.2227 41.1914 75.5254 39.9805 76.1309 38.8086C76.7363 37.6367 77.6152 36.5918 78.7676 35.6738C79.9199 34.7559 81.2969 34.0332 82.8984 33.5059C84.5 32.9785 86.2969 32.7148 88.2891 32.7148C90.6719 32.7148 92.7812 33.1152 94.6172 33.916C96.4727 34.7168 97.9277 35.9277 98.9824 37.5488C100.057 39.1504 100.594 41.1621 100.594 43.584V57.6758C100.594 59.1211 100.691 60.4199 100.887 61.5723C101.102 62.7051 101.404 63.6914 101.795 64.5312V65H94.5586C94.2266 64.2383 93.9629 63.2715 93.7676 62.0996C93.5918 60.9082 93.5039 59.7559 93.5039 58.6426ZM94.5293 45.7227L94.5879 50.0879H89.5195C88.2109 50.0879 87.0586 50.2148 86.0625 50.4688C85.0664 50.7031 84.2363 51.0547 83.5723 51.5234C82.9082 51.9922 82.4102 52.5586 82.0781 53.2227C81.7461 53.8867 81.5801 54.6387 81.5801 55.4785C81.5801 56.3184 81.7754 57.0898 82.166 57.793C82.5566 58.4766 83.123 59.0137 83.8652 59.4043C84.627 59.7949 85.5449 59.9902 86.6191 59.9902C88.0645 59.9902 89.3242 59.6973 90.3984 59.1113C91.4922 58.5059 92.3516 57.7734 92.9766 56.9141C93.6016 56.0352 93.9336 55.2051 93.9727 54.4238L96.2578 57.5586C96.0234 58.3594 95.623 59.2188 95.0566 60.1367C94.4902 61.0547 93.748 61.9336 92.8301 62.7734C91.9316 63.5938 90.8477 64.2676 89.5781 64.7949C88.3281 65.3223 86.8828 65.5859 85.2422 65.5859C83.1719 65.5859 81.3262 65.1758 79.7051 64.3555C78.084 63.5156 76.8145 62.3926 75.8965 60.9863C74.9785 59.5605 74.5195 57.9492 74.5195 56.1523C74.5195 54.4727 74.832 52.9883 75.457 51.6992C76.1016 50.3906 77.0391 49.2969 78.2695 48.418C79.5195 47.5391 81.043 46.875 82.8398 46.4258C84.6367 45.957 86.6875 45.7227 88.9922 45.7227H94.5293ZM114.979 40.0684V65H107.918V33.3008H114.568L114.979 40.0684ZM113.719 47.9785L111.434 47.9492C111.453 45.7031 111.766 43.6426 112.371 41.7676C112.996 39.8926 113.855 38.2812 114.949 36.9336C116.062 35.5859 117.391 34.5508 118.934 33.8281C120.477 33.0859 122.195 32.7148 124.09 32.7148C125.613 32.7148 126.99 32.9297 128.221 33.3594C129.471 33.7695 130.535 34.4434 131.414 35.3809C132.312 36.3184 132.996 37.5391 133.465 39.043C133.934 40.5273 134.168 42.3535 134.168 44.5215V65H127.078V44.4922C127.078 42.9688 126.854 41.7676 126.404 40.8887C125.975 39.9902 125.34 39.3555 124.5 38.9844C123.68 38.5938 122.654 38.3984 121.424 38.3984C120.213 38.3984 119.129 38.6523 118.172 39.1602C117.215 39.668 116.404 40.3613 115.74 41.2402C115.096 42.1191 114.598 43.1348 114.246 44.2871C113.895 45.4395 113.719 46.6699 113.719 47.9785ZM160.711 58.4375V20H167.801V65H161.385L160.711 58.4375ZM140.086 49.502V48.8867C140.086 46.4844 140.369 44.2969 140.936 42.3242C141.502 40.332 142.322 38.623 143.396 37.1973C144.471 35.752 145.779 34.6484 147.322 33.8867C148.865 33.1055 150.604 32.7148 152.537 32.7148C154.451 32.7148 156.131 33.0859 157.576 33.8281C159.021 34.5703 160.252 35.6348 161.268 37.0215C162.283 38.3887 163.094 40.0293 163.699 41.9434C164.305 43.8379 164.734 45.9473 164.988 48.2715V50.2344C164.734 52.5 164.305 54.5703 163.699 56.4453C163.094 58.3203 162.283 59.9414 161.268 61.3086C160.252 62.6758 159.012 63.7305 157.547 64.4727C156.102 65.2148 154.412 65.5859 152.479 65.5859C150.564 65.5859 148.836 65.1855 147.293 64.3848C145.77 63.584 144.471 62.4609 143.396 61.0156C142.322 59.5703 141.502 57.8711 140.936 55.918C140.369 53.9453 140.086 51.8066 140.086 49.502ZM147.146 48.8867V49.502C147.146 50.9473 147.273 52.2949 147.527 53.5449C147.801 54.7949 148.221 55.8984 148.787 56.8555C149.354 57.793 150.086 58.5352 150.984 59.082C151.902 59.6094 152.996 59.873 154.266 59.873C155.867 59.873 157.186 59.5215 158.221 58.8184C159.256 58.1152 160.066 57.168 160.652 55.9766C161.258 54.7656 161.668 53.418 161.883 51.9336V46.6309C161.766 45.4785 161.521 44.4043 161.15 43.4082C160.799 42.4121 160.32 41.543 159.715 40.8008C159.109 40.0391 158.357 39.4531 157.459 39.043C156.58 38.6133 155.535 38.3984 154.324 38.3984C153.035 38.3984 151.941 38.6719 151.043 39.2188C150.145 39.7656 149.402 40.5176 148.816 41.4746C148.25 42.4316 147.83 43.5449 147.557 44.8145C147.283 46.084 147.146 47.4414 147.146 48.8867ZM194.256 57.5293V33.3008H201.346V65H194.666L194.256 57.5293ZM195.252 50.9375L197.625 50.8789C197.625 53.0078 197.391 54.9707 196.922 56.7676C196.453 58.5449 195.73 60.0977 194.754 61.4258C193.777 62.7344 192.527 63.7598 191.004 64.502C189.48 65.2246 187.654 65.5859 185.525 65.5859C183.982 65.5859 182.566 65.3613 181.277 64.9121C179.988 64.4629 178.875 63.7695 177.938 62.832C177.02 61.8945 176.307 60.6738 175.799 59.1699C175.291 57.666 175.037 55.8691 175.037 53.7793V33.3008H182.098V53.8379C182.098 54.9902 182.234 55.957 182.508 56.7383C182.781 57.5 183.152 58.1152 183.621 58.584C184.09 59.0527 184.637 59.3848 185.262 59.5801C185.887 59.7754 186.551 59.873 187.254 59.873C189.266 59.873 190.848 59.4824 192 58.7012C193.172 57.9004 194.002 56.8262 194.49 55.4785C194.998 54.1309 195.252 52.6172 195.252 50.9375ZM216.141 20V65H209.051V20H216.141ZM241.746 58.6426V43.5254C241.746 42.3926 241.541 41.416 241.131 40.5957C240.721 39.7754 240.096 39.1406 239.256 38.6914C238.436 38.2422 237.4 38.0176 236.15 38.0176C234.998 38.0176 234.002 38.2129 233.162 38.6035C232.322 38.9941 231.668 39.5215 231.199 40.1855C230.73 40.8496 230.496 41.6016 230.496 42.4414H223.465C223.465 41.1914 223.768 39.9805 224.373 38.8086C224.979 37.6367 225.857 36.5918 227.01 35.6738C228.162 34.7559 229.539 34.0332 231.141 33.5059C232.742 32.9785 234.539 32.7148 236.531 32.7148C238.914 32.7148 241.023 33.1152 242.859 33.916C244.715 34.7168 246.17 35.9277 247.225 37.5488C248.299 39.1504 248.836 41.1621 248.836 43.584V57.6758C248.836 59.1211 248.934 60.4199 249.129 61.5723C249.344 62.7051 249.646 63.6914 250.037 64.5312V65H242.801C242.469 64.2383 242.205 63.2715 242.01 62.0996C241.834 60.9082 241.746 59.7559 241.746 58.6426ZM242.771 45.7227L242.83 50.0879H237.762C236.453 50.0879 235.301 50.2148 234.305 50.4688C233.309 50.7031 232.479 51.0547 231.814 51.5234C231.15 51.9922 230.652 52.5586 230.32 53.2227C229.988 53.8867 229.822 54.6387 229.822 55.4785C229.822 56.3184 230.018 57.0898 230.408 57.793C230.799 58.4766 231.365 59.0137 232.107 59.4043C232.869 59.7949 233.787 59.9902 234.861 59.9902C236.307 59.9902 237.566 59.6973 238.641 59.1113C239.734 58.5059 240.594 57.7734 241.219 56.9141C241.844 56.0352 242.176 55.2051 242.215 54.4238L244.5 57.5586C244.266 58.3594 243.865 59.2188 243.299 60.1367C242.732 61.0547 241.99 61.9336 241.072 62.7734C240.174 63.5938 239.09 64.2676 237.82 64.7949C236.57 65.3223 235.125 65.5859 233.484 65.5859C231.414 65.5859 229.568 65.1758 227.947 64.3555C226.326 63.5156 225.057 62.3926 224.139 60.9863C223.221 59.5605 222.762 57.9492 222.762 56.1523C222.762 54.4727 223.074 52.9883 223.699 51.6992C224.344 50.3906 225.281 49.2969 226.512 48.418C227.762 47.5391 229.285 46.875 231.082 46.4258C232.879 45.957 234.93 45.7227 237.234 45.7227H242.771Z" fill="#835AFD"/>
<path d="M61.9155 28.5572H39.1882C37.1211 28.5572 35.1387 29.3783 33.677 30.84C32.2154 32.3017 31.3942 34.2841 31.3942 36.3512C31.3942 38.4183 32.2154 40.4007 33.677 41.8624C35.1387 43.324 37.1211 44.1452 39.1882 44.1452H54.7762V55.1503C50.4872 57.7755 45.5574 59.1671 40.5288 59.172C37.4648 59.3331 34.4002 58.8687 31.5216 57.8071C28.6429 56.7455 26.0106 55.109 23.7848 52.9972C21.5591 50.8855 19.7866 48.3426 18.5754 45.5237C17.3641 42.7048 16.7395 39.6687 16.7395 36.6006C16.7395 33.5325 17.3641 30.4964 18.5754 27.6775C19.7866 24.8586 21.5591 22.3157 23.7848 20.2039C26.0106 18.0922 28.6429 16.4556 31.5216 15.3941C34.4002 14.3325 37.4648 13.8681 40.5288 14.0292C46.5485 13.9914 52.4082 15.9666 57.1767 19.6409C58.7953 20.8248 60.8106 21.3336 62.7972 21.0598C64.7838 20.7859 66.5863 19.7509 67.8242 18.1732C69.0621 16.5954 69.6386 14.5985 69.4319 12.6038C69.2253 10.609 68.2516 8.77266 66.7166 7.48224C59.3902 1.74586 50.0998 0 40.5288 0C18.1132 0 0 15.588 0 36.6006C0 57.6132 18.2691 73.17 40.5288 73.17C50.4115 73.17 59.9514 71.2371 67.3713 65.1578C69.1795 63.6925 71.6112 61.5102 71.6112 59.2032V37.38C71.7047 28.3078 61.9155 28.5572 61.9155 28.5572Z" fill="#835AFD"/>
<path d="M46.9203 36.2892C46.9203 37.8184 46.4669 39.3133 45.6173 40.5847C44.7677 41.8562 43.5602 42.8472 42.1474 43.4323C40.7347 44.0175 39.1801 44.1707 37.6803 43.8723C36.1805 43.574 34.8029 42.8376 33.7216 41.7563C32.6403 40.675 31.9039 39.2974 31.6056 37.7976C31.3073 36.2978 31.4604 34.7433 32.0456 33.3305C32.6308 31.9177 33.6217 30.7102 34.8932 29.8606C36.1647 29.0111 37.6595 28.5576 39.1887 28.5576C41.2392 28.5576 43.2058 29.3722 44.6558 30.8222C46.1057 32.2721 46.9203 34.2387 46.9203 36.2892V36.2892Z" fill="#7C83FD"/>
</svg>
