<?xml version="1.0" standalone="no"?>
<!DOCTYPE svg PUBLIC "-//W3C//DTD SVG 20010904//EN"
 "http://www.w3.org/TR/2001/REC-SVG-20010904/DTD/svg10.dtd">
<svg version="1.0" xmlns="http://www.w3.org/2000/svg"
 width="1024.000000pt" height="1024.000000pt" viewBox="0 0 1024.000000 1024.000000"
 preserveAspectRatio="xMidYMid meet">

<g transform="translate(0.000000,1024.000000) scale(0.100000,-0.100000)"
fill="#000000" stroke="none">
<path d="M4960 10229 c-942 -49 -1852 -359 -2624 -893 -289 -200 -504 -383
-766 -652 -338 -347 -602 -704 -833 -1128 l-76 -139 46 -36 c25 -20 406 -316
847 -658 l800 -621 47 121 c328 861 1017 1535 1871 1832 642 224 1386 213
2014 -30 298 -115 620 -314 847 -523 l59 -54 724 723 c398 398 724 727 724
731 0 18 -232 218 -405 348 -935 704 -2069 1043 -3275 979z"/>
<path d="M5230 5010 l0 -960 1380 0 c1247 0 1380 -2 1380 -16 0 -29 -49 -210
-85 -313 -80 -229 -192 -440 -341 -641 -98 -133 -358 -392 -486 -485 -54 -38
-96 -73 -95 -77 1 -3 139 -113 307 -243 168 -130 328 -254 355 -276 28 -21
257 -200 509 -396 l459 -356 142 144 c761 777 1215 1788 1340 2990 48 467 40
928 -26 1427 l-22 162 -2408 0 -2409 0 0 -960z"/>
</g>
</svg>
