<svg width="164" height="48" viewBox="0 0 164 48" fill="none" xmlns="http://www.w3.org/2000/svg">
<path d="M55.3359 30.7617V20.6836C55.3359 19.9284 55.1992 19.2773 54.9258 18.7305C54.6523 18.1836 54.2357 17.7604 53.6758 17.4609C53.1289 17.1615 52.4388 17.0117 51.6055 17.0117C50.8372 17.0117 50.1732 17.1419 49.6133 17.4023C49.0534 17.6628 48.6172 18.0143 48.3047 18.457C47.9922 18.8997 47.8359 19.401 47.8359 19.9609H43.1484C43.1484 19.1276 43.3503 18.3203 43.7539 17.5391C44.1576 16.7578 44.7435 16.0612 45.5117 15.4492C46.2799 14.8372 47.1979 14.3555 48.2656 14.0039C49.3333 13.6523 50.5312 13.4766 51.8594 13.4766C53.4479 13.4766 54.8542 13.7435 56.0781 14.2773C57.3151 14.8112 58.2852 15.6185 58.9883 16.6992C59.7044 17.7669 60.0625 19.1081 60.0625 20.7227V30.1172C60.0625 31.0807 60.1276 31.9466 60.2578 32.7148C60.401 33.4701 60.6029 34.1276 60.8633 34.6875V35H56.0391C55.8177 34.4922 55.6419 33.8477 55.5117 33.0664C55.3945 32.2721 55.3359 31.5039 55.3359 30.7617ZM56.0195 22.1484L56.0586 25.0586H52.6797C51.8073 25.0586 51.0391 25.1432 50.375 25.3125C49.7109 25.4688 49.1576 25.7031 48.7148 26.0156C48.2721 26.3281 47.9401 26.7057 47.7188 27.1484C47.4974 27.5911 47.3867 28.0924 47.3867 28.6523C47.3867 29.2122 47.5169 29.7266 47.7773 30.1953C48.0378 30.651 48.4154 31.0091 48.9102 31.2695C49.418 31.5299 50.0299 31.6602 50.7461 31.6602C51.7096 31.6602 52.5495 31.4648 53.2656 31.0742C53.9948 30.6706 54.5677 30.1823 54.9844 29.6094C55.401 29.0234 55.6224 28.4701 55.6484 27.9492L57.1719 30.0391C57.0156 30.5729 56.7487 31.1458 56.3711 31.7578C55.9935 32.3698 55.4987 32.9557 54.8867 33.5156C54.2878 34.0625 53.5651 34.5117 52.7188 34.8633C51.8854 35.2148 50.9219 35.3906 49.8281 35.3906C48.4479 35.3906 47.2174 35.1172 46.1367 34.5703C45.056 34.0104 44.2096 33.2617 43.5977 32.3242C42.9857 31.3737 42.6797 30.2995 42.6797 29.1016C42.6797 27.9818 42.888 26.9922 43.3047 26.1328C43.7344 25.2604 44.3594 24.5312 45.1797 23.9453C46.013 23.3594 47.0286 22.9167 48.2266 22.6172C49.4245 22.3047 50.7917 22.1484 52.3281 22.1484H56.0195ZM69.6523 18.3789V35H64.9453V13.8672H69.3789L69.6523 18.3789ZM68.8125 23.6523L67.2891 23.6328C67.3021 22.1354 67.5104 20.7617 67.9141 19.5117C68.3307 18.2617 68.9036 17.1875 69.6328 16.2891C70.375 15.3906 71.2604 14.7005 72.2891 14.2188C73.3177 13.724 74.4635 13.4766 75.7266 13.4766C76.7422 13.4766 77.6602 13.6198 78.4805 13.9062C79.3138 14.1797 80.0234 14.6289 80.6094 15.2539C81.2083 15.8789 81.6641 16.6927 81.9766 17.6953C82.2891 18.6849 82.4453 19.9023 82.4453 21.3477V35H77.7188V21.3281C77.7188 20.3125 77.569 19.5117 77.2695 18.9258C76.9831 18.3268 76.5599 17.9036 76 17.6562C75.4531 17.3958 74.7695 17.2656 73.9492 17.2656C73.1419 17.2656 72.4193 17.4349 71.7812 17.7734C71.1432 18.112 70.6029 18.5742 70.1602 19.1602C69.7305 19.7461 69.3984 20.4232 69.1641 21.1914C68.9297 21.9596 68.8125 22.7799 68.8125 23.6523ZM100.141 30.625V5H104.867V35H100.59L100.141 30.625ZM86.3906 24.668V24.2578C86.3906 22.6562 86.5794 21.1979 86.957 19.8828C87.3346 18.5547 87.8815 17.4154 88.5977 16.4648C89.3138 15.5013 90.1862 14.7656 91.2148 14.2578C92.2435 13.737 93.4023 13.4766 94.6914 13.4766C95.9674 13.4766 97.0872 13.724 98.0508 14.2188C99.0143 14.7135 99.8346 15.4232 100.512 16.3477C101.189 17.2591 101.729 18.3529 102.133 19.6289C102.536 20.8919 102.823 22.2982 102.992 23.8477V25.1562C102.823 26.6667 102.536 28.0469 102.133 29.2969C101.729 30.5469 101.189 31.6276 100.512 32.5391C99.8346 33.4505 99.0078 34.1536 98.0312 34.6484C97.0677 35.1432 95.9414 35.3906 94.6523 35.3906C93.3763 35.3906 92.224 35.1237 91.1953 34.5898C90.1797 34.056 89.3138 33.3073 88.5977 32.3438C87.8815 31.3802 87.3346 30.2474 86.957 28.9453C86.5794 27.6302 86.3906 26.2044 86.3906 24.668ZM91.0977 24.2578V24.668C91.0977 25.6315 91.1823 26.5299 91.3516 27.3633C91.5339 28.1966 91.8138 28.9323 92.1914 29.5703C92.569 30.1953 93.0573 30.6901 93.6562 31.0547C94.2682 31.4062 94.9974 31.582 95.8438 31.582C96.9115 31.582 97.7904 31.3477 98.4805 30.8789C99.1706 30.4102 99.7109 29.7786 100.102 28.9844C100.505 28.1771 100.779 27.2786 100.922 26.2891V22.7539C100.844 21.9857 100.681 21.2695 100.434 20.6055C100.199 19.9414 99.8802 19.362 99.4766 18.8672C99.0729 18.3594 98.5716 17.9688 97.9727 17.6953C97.3867 17.4089 96.6901 17.2656 95.8828 17.2656C95.0234 17.2656 94.2943 17.4479 93.6953 17.8125C93.0964 18.1771 92.6016 18.6784 92.2109 19.3164C91.8333 19.9544 91.5534 20.6966 91.3711 21.543C91.1888 22.3893 91.0977 23.2943 91.0977 24.2578ZM122.504 30.0195V13.8672H127.23V35H122.777L122.504 30.0195ZM123.168 25.625L124.75 25.5859C124.75 27.0052 124.594 28.3138 124.281 29.5117C123.969 30.6966 123.487 31.7318 122.836 32.6172C122.185 33.4896 121.352 34.1732 120.336 34.668C119.32 35.1497 118.103 35.3906 116.684 35.3906C115.655 35.3906 114.711 35.2409 113.852 34.9414C112.992 34.6419 112.25 34.1797 111.625 33.5547C111.013 32.9297 110.538 32.1159 110.199 31.1133C109.861 30.1107 109.691 28.9128 109.691 27.5195V13.8672H114.398V27.5586C114.398 28.3268 114.49 28.9714 114.672 29.4922C114.854 30 115.102 30.4102 115.414 30.7227C115.727 31.0352 116.091 31.2565 116.508 31.3867C116.924 31.5169 117.367 31.582 117.836 31.582C119.177 31.582 120.232 31.3216 121 30.8008C121.781 30.2669 122.335 29.5508 122.66 28.6523C122.999 27.7539 123.168 26.7448 123.168 25.625ZM137.094 5V35H132.367V5H137.094ZM154.164 30.7617V20.6836C154.164 19.9284 154.027 19.2773 153.754 18.7305C153.48 18.1836 153.064 17.7604 152.504 17.4609C151.957 17.1615 151.267 17.0117 150.434 17.0117C149.665 17.0117 149.001 17.1419 148.441 17.4023C147.882 17.6628 147.445 18.0143 147.133 18.457C146.82 18.8997 146.664 19.401 146.664 19.9609H141.977C141.977 19.1276 142.178 18.3203 142.582 17.5391C142.986 16.7578 143.572 16.0612 144.34 15.4492C145.108 14.8372 146.026 14.3555 147.094 14.0039C148.161 13.6523 149.359 13.4766 150.688 13.4766C152.276 13.4766 153.682 13.7435 154.906 14.2773C156.143 14.8112 157.113 15.6185 157.816 16.6992C158.533 17.7669 158.891 19.1081 158.891 20.7227V30.1172C158.891 31.0807 158.956 31.9466 159.086 32.7148C159.229 33.4701 159.431 34.1276 159.691 34.6875V35H154.867C154.646 34.4922 154.47 33.8477 154.34 33.0664C154.223 32.2721 154.164 31.5039 154.164 30.7617ZM154.848 22.1484L154.887 25.0586H151.508C150.635 25.0586 149.867 25.1432 149.203 25.3125C148.539 25.4688 147.986 25.7031 147.543 26.0156C147.1 26.3281 146.768 26.7057 146.547 27.1484C146.326 27.5911 146.215 28.0924 146.215 28.6523C146.215 29.2122 146.345 29.7266 146.605 30.1953C146.866 30.651 147.243 31.0091 147.738 31.2695C148.246 31.5299 148.858 31.6602 149.574 31.6602C150.538 31.6602 151.378 31.4648 152.094 31.0742C152.823 30.6706 153.396 30.1823 153.812 29.6094C154.229 29.0234 154.451 28.4701 154.477 27.9492L156 30.0391C155.844 30.5729 155.577 31.1458 155.199 31.7578C154.822 32.3698 154.327 32.9557 153.715 33.5156C153.116 34.0625 152.393 34.5117 151.547 34.8633C150.714 35.2148 149.75 35.3906 148.656 35.3906C147.276 35.3906 146.046 35.1172 144.965 34.5703C143.884 34.0104 143.038 33.2617 142.426 32.3242C141.814 31.3737 141.508 30.2995 141.508 29.1016C141.508 27.9818 141.716 26.9922 142.133 26.1328C142.562 25.2604 143.188 24.5312 144.008 23.9453C144.841 23.3594 145.857 22.9167 147.055 22.6172C148.253 22.3047 149.62 22.1484 151.156 22.1484H154.848Z" fill="#835AFD"/>
<path d="M34.5839 15.9511H21.8892C20.7346 15.9511 19.6273 16.4098 18.8109 17.2262C17.9944 18.0426 17.5358 19.15 17.5358 20.3046C17.5358 21.4592 17.9944 22.5665 18.8109 23.3829C19.6273 24.1994 20.7346 24.658 21.8892 24.658H30.5961V30.8051C28.2005 32.2715 25.4468 33.0488 22.638 33.0515C20.9266 33.1415 19.2148 32.8821 17.6069 32.2891C15.999 31.6962 14.5286 30.7821 13.2854 29.6025C12.0422 28.4229 11.0521 27.0026 10.3756 25.428C9.69901 23.8534 9.3501 22.1576 9.3501 20.4439C9.3501 18.7301 9.69901 17.0343 10.3756 15.4597C11.0521 13.8852 12.0422 12.4648 13.2854 11.2852C14.5286 10.1057 15.999 9.19157 17.6069 8.59861C19.2148 8.00565 20.9266 7.74625 22.638 7.83623C26.0004 7.81514 29.2735 8.91842 31.937 10.9707C32.8411 11.6321 33.9668 11.9162 35.0764 11.7633C36.1861 11.6103 37.1929 11.0322 37.8843 10.1509C38.5758 9.26966 38.8978 8.15422 38.7824 7.04003C38.6669 5.92585 38.1231 4.90012 37.2657 4.17933C33.1734 0.975178 27.9841 0 22.638 0C10.1174 0 0 8.70694 0 20.4439C0 32.1808 10.2045 40.8703 22.638 40.8703C28.1582 40.8703 33.4868 39.7907 37.6313 36.395C38.6413 35.5765 39.9996 34.3575 39.9996 33.0689V20.8792C40.0519 15.8118 34.5839 15.9511 34.5839 15.9511Z" fill="#835AFD"/>
<path d="M26.2076 20.2698C26.2076 21.1239 25.9543 21.9589 25.4798 22.6691C25.0052 23.3793 24.3307 23.9328 23.5416 24.2597C22.7525 24.5866 21.8842 24.6721 21.0464 24.5055C20.2087 24.3388 19.4392 23.9275 18.8352 23.3235C18.2312 22.7196 17.8199 21.9501 17.6533 21.1123C17.4867 20.2746 17.5722 19.4063 17.8991 18.6171C18.2259 17.828 18.7795 17.1535 19.4896 16.679C20.1998 16.2045 21.0348 15.9512 21.8889 15.9512C23.0343 15.9512 24.1328 16.4062 24.9427 17.2161C25.7526 18.026 26.2076 19.1244 26.2076 20.2698Z" fill="#7C83FD"/>
</svg>
