<svg width="16" height="16" viewBox="0 0 16 16" fill="none" xmlns="http://www.w3.org/2000/svg">
<path d="M3.60091 1H12.4009C13.1342 1 13.7342 1.6 13.7342 2.33333V3.8C13.7342 4.33333 13.4009 5 13.0676 5.33333L10.2009 7.86667C9.80091 8.2 9.53424 8.86667 9.53424 9.4V12.2667C9.53424 12.6667 9.26758 13.2 8.93424 13.4L8.00091 14C7.13425 14.5333 5.93424 13.9333 5.93424 12.8667V9.33333C5.93424 8.86667 5.66758 8.26667 5.40091 7.93333L2.86758 5.26667C2.53424 4.93333 2.26758 4.33333 2.26758 3.93333V2.4C2.26758 1.6 2.86758 1 3.60091 1Z" stroke="#787486" stroke-width="1.3" stroke-miterlimit="10" stroke-linecap="round" stroke-linejoin="round"/>
</svg>
